<svg xmlns="http://www.w3.org/2000/svg" width="190.832" height="63.789" viewBox="0 0 190.832 63.789">
  <g id="Group_173" data-name="Group 173" transform="translate(0 0)">
    <g id="Group_171" data-name="Group 171">
      <path id="Path_503" data-name="Path 503" d="M175.635,0H15.205c-.585,0-1.163,0-1.746,0-.488,0-.973.012-1.465.02A21.074,21.074,0,0,0,8.8.305a10.629,10.629,0,0,0-3.031,1,10.266,10.266,0,0,0-2.581,1.88A9.98,9.98,0,0,0,1.307,5.77a10.527,10.527,0,0,0-1,3.035A20.72,20.72,0,0,0,.024,12c-.015.489-.016.98-.024,1.469V50.327c.008.5.009.975.024,1.47A20.719,20.719,0,0,0,.31,54.99a10.505,10.505,0,0,0,1,3.037A9.9,9.9,0,0,0,3.186,60.6a10.006,10.006,0,0,0,2.581,1.88A10.686,10.686,0,0,0,8.8,63.487a21.457,21.457,0,0,0,3.2.282c.493.011.977.017,1.465.017.583,0,1.161,0,1.746,0h160.43c.573,0,1.156,0,1.729,0,.486,0,.984-.006,1.47-.017a21.176,21.176,0,0,0,3.189-.282,10.85,10.85,0,0,0,3.043-1.006,10.011,10.011,0,0,0,2.579-1.88,10.2,10.2,0,0,0,1.884-2.574,10.53,10.53,0,0,0,.987-3.037,21.542,21.542,0,0,0,.3-3.192c.006-.5.006-.975.006-1.47.012-.579.012-1.156.012-1.744V15.208c0-.584,0-1.163-.012-1.741,0-.489,0-.98-.006-1.469a21.536,21.536,0,0,0-.3-3.193,10.553,10.553,0,0,0-.987-3.035,10.312,10.312,0,0,0-4.463-4.465,10.792,10.792,0,0,0-3.043-1,20.8,20.8,0,0,0-3.189-.282c-.486-.008-.984-.017-1.47-.02-.573,0-1.156,0-1.729,0Z" transform="translate(0 0)" fill="#a6a6a6"/>
      <path id="Path_504" data-name="Path 504" d="M12.948,61.873c-.486,0-.96-.006-1.442-.017a20.233,20.233,0,0,1-2.981-.26,9.383,9.383,0,0,1-2.642-.874A8.62,8.62,0,0,1,3.655,59.1a8.485,8.485,0,0,1-1.627-2.227,9.125,9.125,0,0,1-.866-2.643A19.8,19.8,0,0,1,.9,51.241C.886,50.9.873,49.785.873,49.785V12.946s.014-1.1.023-1.427A19.727,19.727,0,0,1,1.16,8.534a9.178,9.178,0,0,1,.867-2.651A8.569,8.569,0,0,1,3.646,3.654,8.875,8.875,0,0,1,5.882,2.024a9.286,9.286,0,0,1,2.637-.867A20.071,20.071,0,0,1,11.51.894L12.949.875H176.836l1.456.02a19.75,19.75,0,0,1,2.964.259,9.47,9.47,0,0,1,2.665.874,8.92,8.92,0,0,1,3.851,3.859,9.19,9.19,0,0,1,.854,2.63,20.73,20.73,0,0,1,.277,3.01c0,.452,0,.937,0,1.42.013.6.013,1.167.013,1.741V48.063c0,.579,0,1.145-.013,1.715,0,.519,0,.994-.006,1.483a20.3,20.3,0,0,1-.273,2.956,9.152,9.152,0,0,1-.861,2.663,8.74,8.74,0,0,1-1.62,2.21,8.632,8.632,0,0,1-2.232,1.631,9.348,9.348,0,0,1-2.66.877,20,20,0,0,1-2.981.26c-.467.011-.956.017-1.431.017l-1.729,0Z" transform="translate(0.519 0.521)"/>
    </g>
    <g id="_Group_" data-name="&lt;Group&gt;" transform="translate(15.902 13.907)">
      <g id="_Group_2" data-name="&lt;Group&gt;">
        <g id="_Group_3" data-name="&lt;Group&gt;">
          <path id="_Path_" data-name="&lt;Path&gt;" d="M33.569,24.064a7.892,7.892,0,0,1,3.758-6.621A8.078,8.078,0,0,0,30.962,14c-2.678-.281-5.274,1.6-6.639,1.6-1.391,0-3.492-1.575-5.755-1.528a8.476,8.476,0,0,0-7.133,4.35c-3.084,5.34-.784,13.188,2.171,17.5,1.478,2.114,3.206,4.474,5.466,4.391,2.212-.092,3.038-1.41,5.708-1.41,2.645,0,3.42,1.41,5.727,1.357,2.374-.039,3.869-2.123,5.3-4.257a17.482,17.482,0,0,0,2.421-4.932,7.626,7.626,0,0,1-4.655-7.016Z" transform="translate(-9.972 -5.596)" fill="#fff"/>
          <path id="_Path_2" data-name="&lt;Path&gt;" d="M23.968,14.287A7.77,7.77,0,0,0,25.745,8.72a7.906,7.906,0,0,0-5.115,2.647,7.394,7.394,0,0,0-1.824,5.36,6.537,6.537,0,0,0,5.162-2.441Z" transform="translate(-4.727 -8.72)" fill="#fff"/>
        </g>
      </g>
      <g id="Group_172" data-name="Group 172" transform="translate(39 14.593)">
        <path id="Path_505" data-name="Path 505" d="M46.986,32.529H39.437l-1.813,5.353h-3.2l7.15-19.8H44.9l7.15,19.8H48.8Zm-6.767-2.47H46.2l-2.95-8.687H43.17Z" transform="translate(-34.427 -17.748)" fill="#fff"/>
        <path id="Path_506" data-name="Path 506" d="M60.232,28.72c0,4.487-2.4,7.369-6.025,7.369a4.895,4.895,0,0,1-4.543-2.526h-.069v7.151H46.631V21.5H49.5v2.4h.055a5.122,5.122,0,0,1,4.6-2.553C57.816,21.349,60.232,24.245,60.232,28.72Zm-3.046,0c0-2.923-1.511-4.845-3.816-4.845-2.264,0-3.787,1.962-3.787,4.845,0,2.909,1.523,4.857,3.787,4.857,2.3,0,3.815-1.908,3.815-4.857Z" transform="translate(-27.169 -15.804)" fill="#fff"/>
        <path id="Path_507" data-name="Path 507" d="M70.2,28.72c0,4.487-2.4,7.369-6.025,7.369a4.895,4.895,0,0,1-4.543-2.526H59.56v7.151H56.6V21.5h2.869v2.4h.055a5.122,5.122,0,0,1,4.6-2.552C67.781,21.349,70.2,24.245,70.2,28.72Zm-3.046,0c0-2.923-1.511-4.845-3.816-4.845-2.264,0-3.787,1.962-3.787,4.845,0,2.909,1.523,4.857,3.787,4.857,2.3,0,3.816-1.908,3.816-4.857Z" transform="translate(-21.243 -15.804)" fill="#fff"/>
        <path id="Path_508" data-name="Path 508" d="M72.842,32.487c.22,1.964,2.127,3.253,4.734,3.253,2.5,0,4.3-1.289,4.3-3.06,0-1.537-1.084-2.457-3.65-3.088l-2.567-.618c-3.636-.878-5.325-2.579-5.325-5.339,0-3.417,2.978-5.764,7.206-5.764,4.185,0,7.053,2.347,7.15,5.764H81.694c-.179-1.976-1.813-3.169-4.2-3.169s-4.021,1.207-4.021,2.964c0,1.4,1.043,2.224,3.6,2.855l2.182.536C83.313,27.78,85,29.413,85,32.309c0,3.7-2.951,6.025-7.645,6.025-4.392,0-7.357-2.266-7.548-5.848Z" transform="translate(-13.385 -17.871)" fill="#fff"/>
        <path id="Path_509" data-name="Path 509" d="M85.24,19.3v3.417h2.746v2.347H85.24v7.96c0,1.237.55,1.813,1.757,1.813a9.262,9.262,0,0,0,.975-.069V37.1a8.139,8.139,0,0,1-1.646.137c-2.923,0-4.063-1.1-4.063-3.9V25.064h-2.1V22.717h2.1V19.3Z" transform="translate(-7.227 -17.021)" fill="#fff"/>
        <path id="Path_510" data-name="Path 510" d="M86.065,28.728c0-4.543,2.676-7.4,6.848-7.4s6.849,2.855,6.849,7.4-2.649,7.4-6.849,7.4S86.065,33.284,86.065,28.728Zm10.677,0c0-3.116-1.428-4.955-3.83-4.955s-3.828,1.853-3.828,4.955c0,3.129,1.427,4.954,3.828,4.954s3.829-1.825,3.829-4.954Z" transform="translate(-3.717 -15.813)" fill="#fff"/>
        <path id="Path_511" data-name="Path 511" d="M96.186,21.5h2.827v2.457h.069a3.444,3.444,0,0,1,3.473-2.609,4.571,4.571,0,0,1,1.015.111v2.772a4.143,4.143,0,0,0-1.332-.179,2.986,2.986,0,0,0-3.088,3.322v8.564H96.186Z" transform="translate(2.302 -15.804)" fill="#fff"/>
        <path id="Path_512" data-name="Path 512" d="M114.241,31.706c-.4,2.621-2.951,4.42-6.217,4.42-4.2,0-6.807-2.814-6.807-7.329s2.621-7.466,6.683-7.466c3.995,0,6.507,2.744,6.507,7.122v1.015h-10.2v.179a3.76,3.76,0,0,0,3.884,4.09,3.267,3.267,0,0,0,3.334-2.031ZM104.223,27.4h7.218a3.472,3.472,0,0,0-3.541-3.664,3.655,3.655,0,0,0-3.677,3.665Z" transform="translate(5.294 -15.813)" fill="#fff"/>
      </g>
    </g>
  </g>
</svg>
