<svg id="Group_152" data-name="Group 152" xmlns="http://www.w3.org/2000/svg" width="108.04" height="124.424" viewBox="0 0 108.04 124.424">
  <g id="Group_151" data-name="Group 151">
    <path id="Path_399" data-name="Path 399" d="M126.423,260.41l-25.477-10.158-5.966-5.026a3.97,3.97,0,0,0-5.364.219l-8.3,8.247L73,245.441a3.973,3.973,0,0,0-5.361-.217l-5.966,5.026L36.2,260.411c-8.2,3.268-8.2,32.321-8.9,34.987h108.04C134.634,292.738,134.63,263.674,126.423,260.41Z" transform="translate(-27.297 -170.974)" fill="#abcf39"/>
    <path id="Path_400" data-name="Path 400" d="M158.932,26.31C157.163,11.534,143.478,0,126.909,0S96.655,11.534,94.886,26.31a5.288,5.288,0,0,0-2.447,4.459v12a5.3,5.3,0,0,0,5.3,5.3l4.784-.012c2.955,15.442,13.443,24.227,24.39,24.227s17.306-5.2,21.524-14.793A25.953,25.953,0,0,1,133.987,62.8a3.348,3.348,0,0,1-2.784,1.486h-3.058a3.351,3.351,0,0,1,0-6.7H131.2a3.342,3.342,0,0,1,2.657,1.315c10.524-.845,15.473-7.228,17.447-10.831l4.777,0a5.3,5.3,0,0,0,5.3-5.3v-12A5.291,5.291,0,0,0,158.932,26.31Zm-7.815.541c-3.123-9.86-12.146-15.721-24.208-15.721s-21.091,5.858-24.217,15.713a5.285,5.285,0,0,0-1.668-1.021C103.023,14.6,113.869,6,126.909,6s23.886,8.6,25.885,19.82A5.286,5.286,0,0,0,151.117,26.851Z" transform="translate(-72.889 0)" fill="#abcf39"/>
  </g>
</svg>
