<svg xmlns="http://www.w3.org/2000/svg" width="125.166" height="152.576" viewBox="0 0 125.166 152.576">
  <g id="businessman-running-fast-with-suitcase-in-right-hand-svgrepo-com" transform="translate(-11.051)">
    <g id="Group_153" data-name="Group 153" transform="translate(11.051 0)">
      <circle id="Ellipse_18" data-name="Ellipse 18" cx="17.125" cy="17.125" r="17.125" transform="translate(71.443)" fill="#abcf39"/>
      <path id="Path_401" data-name="Path 401" d="M134.638,46.718a6.653,6.653,0,0,0-9.372-.769c-3.126,2.656-9.187,3.447-14.739,1.932-4.5-1.23-7.8-3.735-8.83-6.7a5.9,5.9,0,0,0-.33-.769,16.956,16.956,0,0,0-6.893-8.706,6.625,6.625,0,0,0-2.458-1.373,11.507,11.507,0,0,0-1.293-.479l.233.046L74.463,15.044l-5.314-2.562,2.078,5.25L86.512,28.222,56.423,15.907l-7.516,1.684,3.606,5.615,25.413,6.146a51.094,51.094,0,0,0-19.477,6.358c-9.373,5.328-15.8,12.924-18.1,21.389-.038.145-.067.29-.1.435a2.081,2.081,0,0,0-2.024.47L36.5,59.621l-7-7.466-18.454,17.3,23.433,25,18.458-17.3-7-7.465,1.724-1.617a2.083,2.083,0,0,0,.29-2.692,6.645,6.645,0,0,0,5.223-4.792c1.345-4.948,5.661-9.8,11.841-13.313a38.2,38.2,0,0,1,4.131-2.024L59.963,74.01a11.548,11.548,0,0,0-.432,5.133L53.073,96.374l-20.121,1a7.857,7.857,0,0,0,.383,15.7c.131,0,.263,0,.4-.01l25.276-1.256a7.859,7.859,0,0,0,6.969-5.092l5.646-15.066a18.787,18.787,0,0,0,2.061.436L83.99,106.963l-8.824,32.71a7.857,7.857,0,1,0,15.171,4.095l9.775-36.233a7.859,7.859,0,0,0-1.128-6.521L88.706,86.181a11.9,11.9,0,0,0,1.2-2.605l8.513-26.65a30.865,30.865,0,0,0,8.61,3.783,34.749,34.749,0,0,0,9.123,1.225c6.8,0,13.236-2.039,17.721-5.842A6.652,6.652,0,0,0,134.638,46.718ZM46.476,66.8l-1.722,1.617L37.7,60.892l1.725-1.616a.343.343,0,0,1,.486.016l.252.269a6.644,6.644,0,0,0,4.862,5.7c.2.053.4.084.593.12l.126.134.75.8A.342.342,0,0,1,46.476,66.8Z" transform="translate(-11.051 2.996)" fill="#abcf39"/>
    </g>
  </g>
</svg>
