<svg id="Google_Play-Badge-Logo.wine" xmlns="http://www.w3.org/2000/svg" xmlns:xlink="http://www.w3.org/1999/xlink" width="214.94" height="63.789" viewBox="0 0 214.94 63.789">
  <defs>
    <linearGradient id="linear-gradient" x1="0.849" y1="0.31" x2="0.361" y2="0.799" gradientUnits="objectBoundingBox">
      <stop offset="0" stop-color="#00a0ff"/>
      <stop offset="0.007" stop-color="#00a1ff"/>
      <stop offset="0.26" stop-color="#00beff"/>
      <stop offset="0.512" stop-color="#00d2ff"/>
      <stop offset="0.76" stop-color="#00dfff"/>
      <stop offset="1" stop-color="#00e3ff"/>
    </linearGradient>
    <linearGradient id="linear-gradient-2" x1="0.97" y1="0.436" x2="-1.177" y2="0.436" gradientUnits="objectBoundingBox">
      <stop offset="0" stop-color="#ffe000"/>
      <stop offset="0.409" stop-color="#ffbd00"/>
      <stop offset="0.775" stop-color="orange"/>
      <stop offset="1" stop-color="#ff9c00"/>
    </linearGradient>
    <linearGradient id="linear-gradient-3" x1="0.761" y1="0.213" x2="-0.443" y2="1.411" gradientUnits="objectBoundingBox">
      <stop offset="0" stop-color="#ff3a44"/>
      <stop offset="1" stop-color="#c31162"/>
    </linearGradient>
    <linearGradient id="linear-gradient-4" x1="-0.17" y1="-0.275" x2="0.367" y2="0.26" gradientUnits="objectBoundingBox">
      <stop offset="0" stop-color="#32a071"/>
      <stop offset="0.068" stop-color="#2da771"/>
      <stop offset="0.476" stop-color="#15cf74"/>
      <stop offset="0.801" stop-color="#06e775"/>
      <stop offset="1" stop-color="#00f076"/>
    </linearGradient>
    <linearGradient id="linear-gradient-5" x1="0.624" y1="0.038" x2="-0.364" y2="1.027" gradientUnits="objectBoundingBox">
      <stop offset="0" stop-color="#cc2e36"/>
      <stop offset="1" stop-color="#9c0e4e"/>
    </linearGradient>
    <linearGradient id="linear-gradient-6" x1="5.233" y1="-7.998" x2="-1.121" y2="-1.634" gradientUnits="objectBoundingBox">
      <stop offset="0" stop-color="#008de0"/>
      <stop offset="0.007" stop-color="#008de0"/>
      <stop offset="0.26" stop-color="#00a7e0"/>
      <stop offset="0.512" stop-color="#00b8e0"/>
      <stop offset="0.76" stop-color="#00c4e0"/>
      <stop offset="1" stop-color="#00c7e0"/>
    </linearGradient>
    <linearGradient id="linear-gradient-7" x1="0.943" y1="-0.195" x2="-2.414" y2="-0.195" gradientUnits="objectBoundingBox">
      <stop offset="0" stop-color="#e0c500"/>
      <stop offset="0.409" stop-color="#e0a600"/>
      <stop offset="0.775" stop-color="#e09100"/>
      <stop offset="1" stop-color="#e08900"/>
    </linearGradient>
    <linearGradient id="linear-gradient-8" x1="0.944" y1="0.999" x2="-2.414" y2="0.999" gradientUnits="objectBoundingBox">
      <stop offset="0" stop-color="#ffe840"/>
      <stop offset="0.409" stop-color="#ffce40"/>
      <stop offset="0.775" stop-color="#ffbc40"/>
      <stop offset="1" stop-color="#ffb540"/>
    </linearGradient>
    <linearGradient id="linear-gradient-9" x1="5.219" y1="0.865" x2="-1.113" y2="6.933" gradientUnits="objectBoundingBox">
      <stop offset="0" stop-color="#40b8ff"/>
      <stop offset="0.007" stop-color="#40b9ff"/>
      <stop offset="0.26" stop-color="#40ceff"/>
      <stop offset="0.512" stop-color="#40ddff"/>
      <stop offset="0.76" stop-color="#40e7ff"/>
      <stop offset="1" stop-color="#40eaff"/>
    </linearGradient>
    <linearGradient id="linear-gradient-10" x1="-0.137" y1="-0.184" x2="0.304" y2="0.257" gradientUnits="objectBoundingBox">
      <stop offset="0" stop-color="#65b895"/>
      <stop offset="0.068" stop-color="#62bd95"/>
      <stop offset="0.476" stop-color="#50db97"/>
      <stop offset="0.801" stop-color="#44ed98"/>
      <stop offset="1" stop-color="#40f498"/>
    </linearGradient>
  </defs>
  <path id="Path_426" data-name="Path 426" d="M206.979,0H7.961A7.991,7.991,0,0,0,0,7.974V55.815a7.991,7.991,0,0,0,7.961,7.974H206.979a7.991,7.991,0,0,0,7.961-7.974V7.974A7.99,7.99,0,0,0,206.979,0m0,1.276a6.7,6.7,0,0,1,6.687,6.7V55.815a6.7,6.7,0,0,1-6.687,6.7H7.961a6.7,6.7,0,0,1-6.687-6.7V7.974a6.7,6.7,0,0,1,6.687-6.7H206.979" fill="#a6a6a6"/>
  <path id="Path_427" data-name="Path 427" d="M928.284,158.151a4.322,4.322,0,0,1-1.186,3.194,4.629,4.629,0,0,1-3.51,1.416,5,5,0,1,1,0-10,4.92,4.92,0,0,1,1.961.4,3.94,3.94,0,0,1,1.494,1.069l-.84.842a3.223,3.223,0,0,0-2.615-1.135,3.822,3.822,0,1,0,2.668,6.575,3.011,3.011,0,0,0,.8-1.938h-3.469v-1.149h4.629a4.082,4.082,0,0,1,.067.722" transform="translate(-852.786 -141.815)" fill="#fff"/>
  <path id="Path_428" data-name="Path 428" d="M926.223,156.085h-.159a4.161,4.161,0,0,1-1.14,3.081h0a4.468,4.468,0,0,1-3.395,1.367,4.839,4.839,0,1,1,0-9.677,4.764,4.764,0,0,1,1.9.388,3.785,3.785,0,0,1,1.435,1.025l.122-.1-.112-.113-.84.842.112.112.123-.1a3.387,3.387,0,0,0-2.738-1.192,3.981,3.981,0,1,0,2.781,6.847,3.175,3.175,0,0,0,.847-2.037l.015-.173h-3.484v-.83h4.47v-.159l-.157.028a3.9,3.9,0,0,1,.064.694h.318a4.23,4.23,0,0,0-.069-.751l-.024-.131h-4.921v1.468H925v-.159l-.158-.014a2.858,2.858,0,0,1-.755,1.839,3.641,3.641,0,0,1-5.054,0,3.85,3.85,0,0,1,0-5.29,3.465,3.465,0,0,1,2.5-1.017,3.063,3.063,0,0,1,2.494,1.078l.112.133.962-.965.1-.1-.094-.112a4.091,4.091,0,0,0-1.553-1.113,5.078,5.078,0,0,0-2.024-.414,5.158,5.158,0,1,0,0,10.315,4.792,4.792,0,0,0,3.625-1.465l-.115-.11.113.113a4.484,4.484,0,0,0,1.233-3.307h-.159m7.339-4h-4.35v3.034h3.923v1.15h-3.923v3.034h4.35v1.175h-5.577v-9.568h5.577v1.175" transform="translate(-850.725 -139.75)" fill="#fff"/>
  <path id="Path_429" data-name="Path 429" d="M1081.483,154.865v-.159h-4.51v3.353h3.923v.83h-3.923v3.353h4.35v.857h-5.258v-9.249h5.258v1.016h.159v0h.159V153.53h-5.9v9.887h5.9v-1.494h-4.35v-2.715h3.923v-1.469h-3.923v-2.715h4.35v-.159h-.159m5.176,8.393h-1.228v-8.393h-2.668v-1.175h6.565v1.175h-2.668v8.393" transform="translate(-998.647 -142.526)" fill="#fff"/>
  <path id="Path_430" data-name="Path 430" d="M1175.479,163.258v-.16h-1.069v-8.393h-2.668v-.856h6.246v.856h-2.668v8.552h.159v0h.159v-8.233h2.668V153.53h-6.883v1.494h2.668v8.393h1.547v-.159h-.159m7.418,0v-9.568h1.227v9.568H1182.9" transform="translate(-1087.466 -142.526)" fill="#fff"/>
  <path id="Path_431" data-name="Path 431" d="M1329.448,163.258h.159v-9.409h.909V163.1h-1.068v.159h0v.159h1.386V153.53h-1.545v9.887h.159v-.159m6.672,0h-1.228v-8.393h-2.668v-1.175h6.564v1.175h-2.668v8.393" transform="translate(-1234.018 -142.526)" fill="#fff"/>
  <path id="Path_432" data-name="Path 432" d="M1372.071,162.547v-.16H1371v-8.393h-2.668v-.856h6.246v.856h-2.668v8.552h.159v0h.159v-8.233h2.668v-1.494h-6.883v1.494h2.668v8.393h1.547v-.159h-.159m9-2.037a3.67,3.67,0,0,0,5.19,0,4.082,4.082,0,0,0,0-5.493,3.669,3.669,0,0,0-5.19,0,4.088,4.088,0,0,0,0,5.493Zm6.1.8a4.954,4.954,0,0,1-7,0,5.175,5.175,0,0,1,0-7.1,4.937,4.937,0,0,1,7,.006,5.159,5.159,0,0,1,.006,7.089Z" transform="translate(-1269.968 -141.815)" fill="#fff"/>
  <path id="Path_433" data-name="Path 433" d="M1518.1,158.444l-.113.112a3.828,3.828,0,0,0,5.417,0,4.241,4.241,0,0,0,0-5.717,3.829,3.829,0,0,0-5.417,0,4.246,4.246,0,0,0,0,5.717l.113-.112.113-.112a3.928,3.928,0,0,1,0-5.269,3.511,3.511,0,0,1,4.964,0,3.925,3.925,0,0,1,0,5.269,3.511,3.511,0,0,1-4.964,0Zm6.1.8-.114-.111a4.8,4.8,0,0,1-6.777,0l0-.005,0,.005a5.017,5.017,0,0,1,0-6.874,4.779,4.779,0,0,1,6.77.007,5,5,0,0,1,.006,6.867l.114.111.115.111a5.319,5.319,0,0,0-.006-7.311,5.1,5.1,0,0,0-7.227-.006h0a5.336,5.336,0,0,0,0,7.318l0,0,0-.005a5.113,5.113,0,0,0,7.233,0Zm3.13,1.237v-9.568h1.494l4.643,7.444h.053l-.053-1.844v-5.6h1.228v9.568h-1.281l-4.857-7.8h-.053l.053,1.845v5.96h-1.226" transform="translate(-1407.002 -139.75)" fill="#fff"/>
  <path id="Path_434" data-name="Path 434" d="M966.719,163.258h.159v-9.409h1.246l4.643,7.444h.3l-.057-2.006v-5.438h.91V163.1h-1.034l-4.857-7.8h-.3l.057,2.007v5.8h-1.067v.159h0v.159H968.1V157.3l-.053-1.846-.159,0v.159h.053v-.159l-.135.085,4.9,7.879h1.529V153.53H972.7v5.761l.053,1.846.159,0v-.159h-.053v.159l.135-.085-4.69-7.518H966.56v9.887h.159v-.159m49.931,27.11h2.971V170.432h-2.971Zm26.759-12.755L1040,186.257h-.1l-3.535-8.643h-3.2l5.3,12.081-3.022,6.72h3.1l8.168-18.8Zm-16.848,10.49c-.974,0-2.331-.487-2.331-1.693,0-1.539,1.691-2.129,3.149-2.129a5.279,5.279,0,0,1,2.715.667A3.6,3.6,0,0,1,1026.561,188.1Zm.358-10.926a5.576,5.576,0,0,0-5.3,3.052l2.636,1.1a2.815,2.815,0,0,1,2.715-1.462,2.861,2.861,0,0,1,3.124,2.565v.2a6.561,6.561,0,0,0-3.1-.769c-2.842,0-5.736,1.564-5.736,4.488,0,2.668,2.331,4.386,4.942,4.386a4.192,4.192,0,0,0,3.791-1.949h.1v1.539h2.868v-7.644C1032.962,179.153,1030.325,177.177,1026.919,177.177Zm-18.361,2.863h-4.226v-6.834h4.226a3.417,3.417,0,1,1,0,6.834Zm-.076-9.608h-7.119v19.936h2.969v-7.553h4.149a6.2,6.2,0,1,0,0-12.383Zm-38.818,17.675a4.126,4.126,0,0,1,0-8.222c2.026,0,3.617,1.747,3.617,4.136A3.788,3.788,0,0,1,969.664,188.107Zm3.411-9.378h-.1a4.69,4.69,0,0,0-3.566-1.516,6.789,6.789,0,0,0,0,13.565,4.615,4.615,0,0,0,3.566-1.541h.1v.976c0,2.6-1.385,3.983-3.616,3.983a3.749,3.749,0,0,1-3.412-2.415l-2.59,1.079a6.454,6.454,0,0,0,6,4.008c3.488,0,6.438-2.056,6.438-7.065V177.625h-2.822Zm4.873,11.638h2.976V170.431h-2.976Zm7.362-6.577a3.717,3.717,0,0,1,3.539-3.956,2.619,2.619,0,0,1,2.513,1.439Zm9.234-2.261a6.3,6.3,0,0,0-5.8-4.316A6.441,6.441,0,0,0,982.361,184a6.632,6.632,0,0,0,6.72,6.783,6.734,6.734,0,0,0,5.644-3.006l-2.309-1.542a3.866,3.866,0,0,1-3.335,1.876,3.445,3.445,0,0,1-3.283-2.055l9.054-3.751ZM922.407,179.3v2.877h6.874a6.008,6.008,0,0,1-1.565,3.622,7.029,7.029,0,0,1-5.309,2.107,7.657,7.657,0,0,1,0-15.312,7.32,7.32,0,0,1,5.181,2.056l2.026-2.029a10.011,10.011,0,0,0-7.207-2.9,10.534,10.534,0,1,0,0,21.067,9.315,9.315,0,0,0,9.824-9.685,9.348,9.348,0,0,0-.154-1.8Zm17.639,8.812A4.122,4.122,0,1,1,943.868,184,3.921,3.921,0,0,1,940.046,188.107Zm0-10.893a6.783,6.783,0,1,0,6.8,6.782A6.68,6.68,0,0,0,940.046,177.214Zm14.828,10.893A4.122,4.122,0,1,1,958.7,184a3.921,3.921,0,0,1-3.822,4.111Zm0-10.893a6.783,6.783,0,1,0,6.8,6.782,6.679,6.679,0,0,0-6.8-6.782Z" transform="translate(-846.392 -142.526)" fill="#fff"/>
  <path id="Path_435" data-name="Path 435" d="M222.394,162.652a3.083,3.083,0,0,0-.853,2.357v34.8a3.2,3.2,0,0,0,.737,2.241l.118.113h0a2.045,2.045,0,0,0,1.407.518,3.663,3.663,0,0,0,1.784-.535L248.7,189l7.938-4.518a2.972,2.972,0,0,0,1.669-2.068v0a2.97,2.97,0,0,0-1.669-2.069l-7.939-4.518-23.11-13.152a3.669,3.669,0,0,0-1.787-.536,2.047,2.047,0,0,0-1.405.518Z" transform="translate(-205.663 -150.514)" fill="#00c1ff"/>
  <path id="Path_436" data-name="Path 436" d="M.97-512.052l-.118-.113a3.2,3.2,0,0,1-.737-2.241v-34.8a3.083,3.083,0,0,1,.853-2.357l19.726,19.758L.97-512.052" transform="translate(15.763 563.704)" fill="url(#linear-gradient)"/>
  <path id="Path_437" data-name="Path 437" d="M7.262-171.392.686-177.98l6.576-6.587,7.939,4.518a2.97,2.97,0,0,1,1.669,2.069v0A2.972,2.972,0,0,1,15.2-175.91l-7.938,4.518" transform="translate(35.772 209.876)" fill="url(#linear-gradient-2)"/>
  <path id="Path_438" data-name="Path 438" d="M1.847-262.742A2.045,2.045,0,0,1,.44-263.26h0l19.725-19.757,6.576,6.588L3.63-263.277a3.662,3.662,0,0,1-1.784.535" transform="translate(16.293 314.913)" fill="url(#linear-gradient-3)"/>
  <path id="Path_439" data-name="Path 439" d="M19.917-263.329.19-283.087A2.048,2.048,0,0,1,1.6-283.6a3.668,3.668,0,0,1,1.787.536l23.11,13.152-6.576,6.587" transform="translate(16.541 295.225)" fill="url(#linear-gradient-4)"/>
  <path id="Path_440" data-name="Path 440" d="M2.316-181.173a2.05,2.05,0,0,1-1.407-.519h0l0,0-.1-.1-.01-.01.118-.118a2.045,2.045,0,0,0,1.407.518,3.662,3.662,0,0,0,1.784-.535l23.11-13.152.148.148-.15.085L4.1-181.709a3.8,3.8,0,0,1-1.638.532q-.073,0-.145,0" transform="translate(15.825 233.578)" fill="url(#linear-gradient-5)"/>
  <path id="Path_441" data-name="Path 441" d="M.852-32.832a3.2,3.2,0,0,1-.737-2.241V-35.3a3.2,3.2,0,0,0,.737,2.241l.118.113-.118.119" transform="translate(15.763 84.603)" fill="url(#linear-gradient-6)"/>
  <path id="Path_442" data-name="Path 442" d="M.79-87.393l-.148-.148L8.58-92.059a2.972,2.972,0,0,0,1.669-2.068,1.977,1.977,0,0,1-.184.822A3.419,3.419,0,0,1,8.58-91.826L.79-87.393" transform="translate(42.392 126.025)" fill="url(#linear-gradient-7)"/>
  <path id="Path_443" data-name="Path 443" d="M10.241-87.949a2.97,2.97,0,0,0-1.669-2.069L.633-94.536l.148-.148h0l7.79,4.434a2.8,2.8,0,0,1,1.669,2.3" transform="translate(42.4 119.844)" fill="url(#linear-gradient-8)"/>
  <path id="Path_444" data-name="Path 444" d="M.115-32.284v-.244c0-.088,0-.174.007-.257v0a.011.011,0,0,1,0,0V-32.8a3.041,3.041,0,0,1,.73-1.957l.116.117a3.083,3.083,0,0,0-.853,2.357" transform="translate(15.763 46.779)" fill="url(#linear-gradient-9)"/>
  <path id="Path_445" data-name="Path 445" d="M27.207-180.981,4.1-194.134a3.669,3.669,0,0,0-1.787-.536,2.048,2.048,0,0,0-1.406.518l-.116-.117q.055-.058.113-.111l0,0A2.047,2.047,0,0,1,2.3-194.9h.012a3.668,3.668,0,0,1,1.787.536L27.356-181.13h0l-.148.148" transform="translate(15.826 206.29)" fill="url(#linear-gradient-10)"/>
</svg>
